<svg width="64" height="72" viewBox="0 0 64 72" fill="none" xmlns="http://www.w3.org/2000/svg">
<path d="M64 18.271V43.694C64 53.7844 55.5565 61.9651 45.1421 61.9651H43.2347L33.4941 71.3963C33.1127 71.7659 32.5849 72 32 72C31.4596 72 30.97 71.809 30.5949 71.4887L30.4296 71.3285L30.4232 71.3224L20.7653 61.9651H18.8516C8.44347 61.9651 0 53.7844 0 43.694V18.271C0 8.1807 8.44347 0 18.8579 0H45.1421C55.5565 0 64 8.1807 64 18.271Z" fill="#FFD666"/>
<path d="M13.2697 35.219C11.4132 35.219 10.355 37.2687 11.4322 38.7487C15.6205 44.5139 22.5462 48.2728 30.3717 48.2728C38.1972 48.2728 45.1166 44.5077 49.3049 38.7487C50.3821 37.2687 49.324 35.219 47.4674 35.219H13.2697Z" fill="white"/>
<path d="M24.1432 26.4937H12.9405V21.0196C12.9405 17.9976 15.4497 15.5454 18.5419 15.5454C21.634 15.5454 24.1432 17.9976 24.1432 21.0196V26.4937Z" fill="white"/>
<path d="M47.803 26.4937H36.6002V21.0196C36.6002 17.9976 39.1094 15.5454 42.2016 15.5454C45.2938 15.5454 47.803 17.9976 47.803 21.0196V26.4937Z" fill="white"/>
</svg>
